<svg xmlns="http://www.w3.org/2000/svg" xmlns:xlink="http://www.w3.org/1999/xlink" width="500" zoomAndPan="magnify" viewBox="0 0 375 374.999991" height="500" preserveAspectRatio="xMidYMid meet" version="1.2"><defs/><g id="8fbca69d84"><rect x="0" width="375" y="0" height="374.999991" style="fill:#ffffff;fill-opacity:1;stroke:none;"/><rect x="0" width="375" y="0" height="374.999991" style="fill:#ffffff;fill-opacity:1;stroke:none;"/><g style="fill:#000000;fill-opacity:1;"><g transform="translate(0.0000045, 205.051959)"><path style="stroke:none" d="M 85.453125 -60.5625 C 87.765625 -61.09375 89.648438 -60.867188 91.109375 -59.890625 C 92.578125 -58.921875 93.6875 -57.523438 94.4375 -55.703125 C 95.195312 -53.890625 95.664062 -51.960938 95.84375 -49.921875 C 96.019531 -47.878906 96.019531 -46.054688 95.84375 -44.453125 C 95.394531 -40.910156 94.703125 -37.40625 93.765625 -33.9375 C 92.835938 -30.476562 91.84375 -27.0625 90.78125 -23.6875 C 89.976562 -21.207031 89.132812 -18.703125 88.25 -16.171875 C 87.363281 -13.640625 86.476562 -11.132812 85.59375 -8.65625 C 84.882812 -6.875 84.039062 -4.851562 83.0625 -2.59375 C 82.082031 -0.332031 81.328125 1.945312 80.796875 4.25 C 80.265625 6.5625 80.398438 8.695312 81.203125 10.65625 C 81.910156 12.425781 81.816406 13.46875 80.921875 13.78125 C 80.035156 14.09375 78.972656 13.914062 77.734375 13.25 C 76.492188 12.582031 75.648438 11.671875 75.203125 10.515625 C 73.867188 7.410156 73.445312 4.394531 73.9375 1.46875 C 74.425781 -1.457031 75.25 -4.429688 76.40625 -7.453125 C 77.46875 -10.378906 78.507812 -13.285156 79.53125 -16.171875 C 80.550781 -19.054688 81.550781 -21.921875 82.53125 -24.765625 C 83.769531 -28.484375 84.96875 -32.269531 86.125 -36.125 C 87.28125 -39.988281 88.125 -43.875 88.65625 -47.78125 C 88.832031 -48.675781 88.941406 -49.585938 88.984375 -50.515625 C 89.023438 -51.441406 89.046875 -52.351562 89.046875 -53.25 C 88.253906 -52.976562 87.546875 -52.664062 86.921875 -52.3125 C 83.015625 -50.09375 79.421875 -47.207031 76.140625 -43.65625 C 72.859375 -40.101562 69.753906 -36.6875 66.828125 -33.40625 C 58.921875 -24.269531 51.328125 -14.796875 44.046875 -4.984375 C 36.773438 4.816406 30.035156 14.863281 23.828125 25.15625 C 23.117188 26.21875 22.117188 26.484375 20.828125 25.953125 C 19.546875 25.421875 18.457031 24.535156 17.5625 23.296875 C 16.675781 22.054688 16.457031 20.988281 16.90625 20.09375 C 23.382812 8.03125 29.441406 -4.210938 35.078125 -16.640625 C 40.710938 -29.066406 45.96875 -41.664062 50.84375 -54.4375 C 51.46875 -56.125 52.132812 -57.8125 52.84375 -59.5 C 53.550781 -61.1875 54.171875 -62.875 54.703125 -64.5625 C 54.796875 -65.09375 54.90625 -65.644531 55.03125 -66.21875 C 55.164062 -66.800781 55.234375 -67.398438 55.234375 -68.015625 C 54.441406 -67.835938 53.691406 -67.617188 52.984375 -67.359375 C 49.785156 -66.109375 46.65625 -64.328125 43.59375 -62.015625 C 40.53125 -59.710938 37.664062 -57.5 35 -55.375 C 29.945312 -51.113281 25.242188 -46.539062 20.890625 -41.65625 C 19.390625 -39.976562 17.769531 -38.09375 16.03125 -36 C 14.300781 -33.914062 12.90625 -31.71875 11.84375 -29.40625 C 10.78125 -27.101562 10.515625 -24.753906 11.046875 -22.359375 C 11.398438 -21.117188 11.265625 -20.363281 10.640625 -20.09375 C 10.023438 -19.832031 9.25 -19.898438 8.3125 -20.296875 C 7.382812 -20.691406 6.519531 -21.265625 5.71875 -22.015625 C 4.925781 -22.773438 4.441406 -23.507812 4.265625 -24.21875 C 3.460938 -27.769531 3.769531 -31.054688 5.1875 -34.078125 C 6.613281 -37.097656 8.390625 -39.984375 10.515625 -42.734375 C 14.773438 -48.234375 19.566406 -53.332031 24.890625 -58.03125 C 29.773438 -62.46875 35.007812 -66.460938 40.59375 -70.015625 C 42.101562 -70.898438 43.675781 -71.832031 45.3125 -72.8125 C 46.957031 -73.789062 48.664062 -74.476562 50.4375 -74.875 C 52.21875 -75.269531 53.992188 -75.023438 55.765625 -74.140625 C 58.878906 -72.804688 60.8125 -70.921875 61.5625 -68.484375 C 62.3125 -66.046875 62.375 -63.40625 61.75 -60.5625 C 61.132812 -57.726562 60.226562 -54.929688 59.03125 -52.171875 C 57.832031 -49.421875 56.789062 -46.984375 55.90625 -44.859375 C 54.488281 -41.128906 53.023438 -37.421875 51.515625 -33.734375 C 50.003906 -30.054688 48.453125 -26.398438 46.859375 -22.765625 C 49.867188 -26.671875 52.945312 -30.507812 56.09375 -34.28125 C 59.25 -38.050781 62.515625 -41.753906 65.890625 -45.390625 C 67.578125 -47.160156 69.441406 -49.132812 71.484375 -51.3125 C 73.523438 -53.488281 75.71875 -55.460938 78.0625 -57.234375 C 80.414062 -59.015625 82.878906 -60.125 85.453125 -60.5625 Z M 88.78125 -55.5 C 88.78125 -55.59375 88.78125 -55.59375 88.78125 -55.5 Z M 88.78125 -55.5 "/></g></g><g style="fill:#000000;fill-opacity:1;"><g transform="translate(99.83004, 205.051959)"><path style="stroke:none" d="M 49.921875 -17.03125 C 50.804688 -17.75 51.757812 -17.863281 52.78125 -17.375 C 53.800781 -16.882812 54.578125 -16.148438 55.109375 -15.171875 C 55.640625 -14.191406 55.503906 -13.347656 54.703125 -12.640625 C 51.597656 -9.890625 48.46875 -7.179688 45.3125 -4.515625 C 42.164062 -1.859375 38.820312 0.488281 35.28125 2.53125 C 33.675781 3.507812 31.921875 4.414062 30.015625 5.25 C 28.109375 6.09375 26.175781 6.382812 24.21875 6.125 C 22.1875 5.945312 20.414062 5.144531 18.90625 3.71875 C 17.394531 2.300781 16.328125 0.617188 15.703125 -1.328125 C 15.347656 -2.566406 15.210938 -3.765625 15.296875 -4.921875 C 15.390625 -6.078125 15.613281 -7.1875 15.96875 -8.25 C 12.425781 -5.945312 9.054688 -3.304688 5.859375 -0.328125 C 2.660156 2.640625 -0.976562 4.921875 -5.0625 6.515625 C -5.945312 6.878906 -6.898438 6.726562 -7.921875 6.0625 C -8.941406 5.394531 -9.757812 4.523438 -10.375 3.453125 C -11 2.390625 -11.222656 1.414062 -11.046875 0.53125 C -10.160156 -3.457031 -8.628906 -7.335938 -6.453125 -11.109375 C -4.273438 -14.878906 -1.546875 -18.007812 1.734375 -20.5 C 4.390625 -22.445312 7.203125 -23.222656 10.171875 -22.828125 C 13.148438 -22.429688 15.617188 -20.988281 17.578125 -18.5 C 18.285156 -18.769531 18.992188 -19.035156 19.703125 -19.296875 C 20.585938 -19.472656 21.609375 -19.164062 22.765625 -18.375 C 23.472656 -17.84375 24.132812 -17.195312 24.75 -16.4375 C 25.375 -15.6875 25.734375 -14.957031 25.828125 -14.25 C 25.910156 -13.800781 25.863281 -13.398438 25.6875 -13.046875 C 25.601562 -11.984375 25.378906 -10.960938 25.015625 -9.984375 C 24.660156 -9.003906 24.304688 -7.984375 23.953125 -6.921875 C 23.597656 -5.941406 23.332031 -4.960938 23.15625 -3.984375 C 22.976562 -3.015625 22.757812 -2 22.5 -0.9375 C 22.582031 -0.9375 22.644531 -0.9375 22.6875 -0.9375 C 22.738281 -0.9375 22.804688 -0.9375 22.890625 -0.9375 C 24.847656 -1.195312 27.113281 -1.945312 29.6875 -3.1875 C 32.257812 -4.4375 34.851562 -5.925781 37.46875 -7.65625 C 40.082031 -9.382812 42.5 -11.09375 44.71875 -12.78125 C 46.9375 -14.46875 48.671875 -15.882812 49.921875 -17.03125 Z M 1.859375 -8.125 C 3.640625 -9.539062 5.367188 -10.9375 7.046875 -12.3125 C 8.734375 -13.6875 10.507812 -14.953125 12.375 -16.109375 C 12.289062 -16.109375 12.25 -16.109375 12.25 -16.109375 C 12.070312 -16.109375 11.847656 -16.082031 11.578125 -16.03125 C 11.316406 -15.988281 11.050781 -15.925781 10.78125 -15.84375 C 10.070312 -15.664062 9.382812 -15.351562 8.71875 -14.90625 C 8.050781 -14.46875 7.453125 -14.023438 6.921875 -13.578125 C 5.941406 -12.773438 5.050781 -11.929688 4.25 -11.046875 C 3.457031 -10.160156 2.75 -9.273438 2.125 -8.390625 C 2.039062 -8.296875 2 -8.226562 2 -8.1875 C 2 -8.144531 1.953125 -8.125 1.859375 -8.125 Z M 1.859375 -8.125 "/></g></g><g style="fill:#000000;fill-opacity:1;"><g transform="translate(150.5437, 205.051959)"><path style="stroke:none" d="M 66.15625 -51.109375 C 66.957031 -50.671875 67.773438 -49.984375 68.609375 -49.046875 C 69.453125 -48.117188 69.832031 -47.164062 69.75 -46.1875 C 69.65625 -45.207031 69.253906 -44.648438 68.546875 -44.515625 C 67.835938 -44.390625 67.082031 -44.546875 66.28125 -44.984375 C 62.820312 -46.765625 59.1875 -47.960938 55.375 -48.578125 C 51.5625 -49.203125 47.742188 -49.648438 43.921875 -49.921875 C 36.378906 -50.359375 28.796875 -50.535156 21.171875 -50.453125 C 21.078125 -50.453125 20.984375 -50.453125 20.890625 -50.453125 C 20.804688 -50.453125 20.765625 -50.453125 20.765625 -50.453125 C 16.859375 -41.835938 13.285156 -33.09375 10.046875 -24.21875 C 6.804688 -15.351562 4.234375 -6.351562 2.328125 2.78125 C 0.421875 11.925781 -0.441406 21.25 -0.265625 30.75 C -0.265625 31.8125 -0.617188 32.382812 -1.328125 32.46875 C -2.035156 32.5625 -2.851562 32.316406 -3.78125 31.734375 C -4.71875 31.160156 -5.539062 30.453125 -6.25 29.609375 C -6.96875 28.773438 -7.328125 27.957031 -7.328125 27.15625 C -7.585938 13.664062 -5.851562 0.488281 -2.125 -12.375 C 1.59375 -25.25 6.117188 -37.804688 11.453125 -50.046875 C -1.328125 -49.335938 -13.972656 -47.785156 -26.484375 -45.390625 C -27.285156 -45.210938 -28.148438 -45.429688 -29.078125 -46.046875 C -30.015625 -46.671875 -30.816406 -47.425781 -31.484375 -48.3125 C -32.148438 -49.207031 -32.523438 -50.050781 -32.609375 -50.84375 C -32.703125 -51.644531 -32.347656 -52.132812 -31.546875 -52.3125 C -23.910156 -53.726562 -16.234375 -54.878906 -8.515625 -55.765625 C -0.796875 -56.660156 6.96875 -57.195312 14.78125 -57.375 C 16.195312 -60.476562 17.613281 -63.5625 19.03125 -66.625 C 20.457031 -69.6875 21.921875 -72.722656 23.421875 -75.734375 C 23.773438 -76.535156 24.394531 -76.867188 25.28125 -76.734375 C 26.175781 -76.597656 27.066406 -76.175781 27.953125 -75.46875 C 28.835938 -74.757812 29.523438 -73.960938 30.015625 -73.078125 C 30.503906 -72.191406 30.570312 -71.394531 30.21875 -70.6875 C 29.15625 -68.46875 28.113281 -66.269531 27.09375 -64.09375 C 26.070312 -61.914062 25.023438 -59.765625 23.953125 -57.640625 C 28.660156 -57.640625 33.476562 -57.550781 38.40625 -57.375 C 43.332031 -57.195312 48.164062 -56.640625 52.90625 -55.703125 C 57.65625 -54.773438 62.070312 -53.242188 66.15625 -51.109375 Z M 66.15625 -51.109375 "/></g></g><g style="fill:#000000;fill-opacity:1;"><g transform="translate(168.912426, 205.051959)"><path style="stroke:none" d="M 62.03125 -17.296875 C 62.914062 -17.742188 63.800781 -17.65625 64.6875 -17.03125 C 65.570312 -16.414062 66.148438 -15.617188 66.421875 -14.640625 C 66.691406 -13.660156 66.25 -12.863281 65.09375 -12.25 C 61.09375 -9.9375 57.007812 -7.492188 52.84375 -4.921875 C 48.675781 -2.347656 44.375 -0.304688 39.9375 1.203125 C 37.445312 1.992188 35.003906 1.832031 32.609375 0.71875 C 30.210938 -0.382812 28.882812 -2.398438 28.625 -5.328125 C 28.53125 -6.660156 28.660156 -8.015625 29.015625 -9.390625 C 29.367188 -10.765625 29.769531 -12.070312 30.21875 -13.3125 C 30.570312 -14.195312 30.925781 -15.082031 31.28125 -15.96875 C 31.632812 -16.851562 31.945312 -17.742188 32.21875 -18.640625 C 21.382812 -12.597656 11.796875 -4.960938 3.453125 4.265625 C 3.015625 4.796875 2.375 4.90625 1.53125 4.59375 C 0.6875 4.28125 0.0390625 3.945312 -0.40625 3.59375 C -3.332031 1.375 -4.796875 -1.128906 -4.796875 -3.921875 C -4.796875 -6.722656 -4.257812 -9.71875 -3.1875 -12.90625 C -0.4375 -20.539062 2.578125 -28.085938 5.859375 -35.546875 C 9.234375 -43.085938 12.9375 -50.472656 16.96875 -57.703125 C 21.007812 -64.929688 25.289062 -71.960938 29.8125 -78.796875 C 30.257812 -79.503906 30.925781 -79.722656 31.8125 -79.453125 C 32.695312 -79.191406 33.539062 -78.660156 34.34375 -77.859375 C 35.144531 -77.066406 35.742188 -76.179688 36.140625 -75.203125 C 36.535156 -74.234375 36.515625 -73.390625 36.078125 -72.671875 C 28.265625 -60.960938 21.382812 -48.851562 15.4375 -36.34375 C 12.507812 -30.125 9.757812 -23.773438 7.1875 -17.296875 C 6.125 -14.546875 5.0625 -11.664062 4 -8.65625 C 7.363281 -11.757812 10.863281 -14.640625 14.5 -17.296875 C 18.144531 -19.960938 21.921875 -22.453125 25.828125 -24.765625 C 27.773438 -25.910156 29.65625 -26.703125 31.46875 -27.140625 C 33.289062 -27.585938 35.132812 -26.972656 37 -25.296875 C 38.507812 -23.867188 39.375 -22.242188 39.59375 -20.421875 C 39.820312 -18.609375 39.710938 -16.769531 39.265625 -14.90625 C 39.003906 -13.394531 38.582031 -11.929688 38 -10.515625 C 37.425781 -9.097656 36.914062 -7.675781 36.46875 -6.25 C 40.726562 -7.582031 45.097656 -9.203125 49.578125 -11.109375 C 54.066406 -13.015625 58.21875 -15.078125 62.03125 -17.296875 Z M 62.03125 -17.296875 "/></g></g><g style="fill:#000000;fill-opacity:1;"><g transform="translate(231.6057, 205.051959)"><path style="stroke:none" d="M 49.921875 -17.03125 C 50.804688 -17.75 51.757812 -17.863281 52.78125 -17.375 C 53.800781 -16.882812 54.578125 -16.148438 55.109375 -15.171875 C 55.640625 -14.191406 55.503906 -13.347656 54.703125 -12.640625 C 51.597656 -9.890625 48.46875 -7.179688 45.3125 -4.515625 C 42.164062 -1.859375 38.820312 0.488281 35.28125 2.53125 C 33.675781 3.507812 31.921875 4.414062 30.015625 5.25 C 28.109375 6.09375 26.175781 6.382812 24.21875 6.125 C 22.1875 5.945312 20.414062 5.144531 18.90625 3.71875 C 17.394531 2.300781 16.328125 0.617188 15.703125 -1.328125 C 15.347656 -2.566406 15.210938 -3.765625 15.296875 -4.921875 C 15.390625 -6.078125 15.613281 -7.1875 15.96875 -8.25 C 12.425781 -5.945312 9.054688 -3.304688 5.859375 -0.328125 C 2.660156 2.640625 -0.976562 4.921875 -5.0625 6.515625 C -5.945312 6.878906 -6.898438 6.726562 -7.921875 6.0625 C -8.941406 5.394531 -9.757812 4.523438 -10.375 3.453125 C -11 2.390625 -11.222656 1.414062 -11.046875 0.53125 C -10.160156 -3.457031 -8.628906 -7.335938 -6.453125 -11.109375 C -4.273438 -14.878906 -1.546875 -18.007812 1.734375 -20.5 C 4.390625 -22.445312 7.203125 -23.222656 10.171875 -22.828125 C 13.148438 -22.429688 15.617188 -20.988281 17.578125 -18.5 C 18.285156 -18.769531 18.992188 -19.035156 19.703125 -19.296875 C 20.585938 -19.472656 21.609375 -19.164062 22.765625 -18.375 C 23.472656 -17.84375 24.132812 -17.195312 24.75 -16.4375 C 25.375 -15.6875 25.734375 -14.957031 25.828125 -14.25 C 25.910156 -13.800781 25.863281 -13.398438 25.6875 -13.046875 C 25.601562 -11.984375 25.378906 -10.960938 25.015625 -9.984375 C 24.660156 -9.003906 24.304688 -7.984375 23.953125 -6.921875 C 23.597656 -5.941406 23.332031 -4.960938 23.15625 -3.984375 C 22.976562 -3.015625 22.757812 -2 22.5 -0.9375 C 22.582031 -0.9375 22.644531 -0.9375 22.6875 -0.9375 C 22.738281 -0.9375 22.804688 -0.9375 22.890625 -0.9375 C 24.847656 -1.195312 27.113281 -1.945312 29.6875 -3.1875 C 32.257812 -4.4375 34.851562 -5.925781 37.46875 -7.65625 C 40.082031 -9.382812 42.5 -11.09375 44.71875 -12.78125 C 46.9375 -14.46875 48.671875 -15.882812 49.921875 -17.03125 Z M 1.859375 -8.125 C 3.640625 -9.539062 5.367188 -10.9375 7.046875 -12.3125 C 8.734375 -13.6875 10.507812 -14.953125 12.375 -16.109375 C 12.289062 -16.109375 12.25 -16.109375 12.25 -16.109375 C 12.070312 -16.109375 11.847656 -16.082031 11.578125 -16.03125 C 11.316406 -15.988281 11.050781 -15.925781 10.78125 -15.84375 C 10.070312 -15.664062 9.382812 -15.351562 8.71875 -14.90625 C 8.050781 -14.46875 7.453125 -14.023438 6.921875 -13.578125 C 5.941406 -12.773438 5.050781 -11.929688 4.25 -11.046875 C 3.457031 -10.160156 2.75 -9.273438 2.125 -8.390625 C 2.039062 -8.296875 2 -8.226562 2 -8.1875 C 2 -8.144531 1.953125 -8.125 1.859375 -8.125 Z M 1.859375 -8.125 "/></g></g><g style="fill:#000000;fill-opacity:1;"><g transform="translate(282.319359, 205.051959)"><path style="stroke:none" d="M 24.625 -17.4375 C 25.070312 -16.726562 25.226562 -15.992188 25.09375 -15.234375 C 24.957031 -14.484375 24.398438 -14.0625 23.421875 -13.96875 C 22.710938 -13.96875 22.046875 -14.164062 21.421875 -14.5625 C 20.804688 -14.96875 20.234375 -15.484375 19.703125 -16.109375 C 18.816406 -16.109375 17.617188 -15.570312 16.109375 -14.5 C 14.597656 -13.4375 13.578125 -12.726562 13.046875 -12.375 C 12.066406 -11.664062 11.132812 -10.890625 10.25 -10.046875 C 9.363281 -9.203125 8.476562 -8.335938 7.59375 -7.453125 C 3.769531 -3.367188 0.75 1.066406 -1.46875 5.859375 C -2 7.015625 -2.882812 7.320312 -4.125 6.78125 C -5.363281 6.25 -6.445312 5.363281 -7.375 4.125 C -8.3125 2.882812 -8.601562 1.820312 -8.25 0.9375 C -6.832031 -3.0625 -5.347656 -6.988281 -3.796875 -10.84375 C -2.242188 -14.707031 -0.753906 -18.632812 0.671875 -22.625 C 1.023438 -23.507812 1.6875 -23.84375 2.65625 -23.625 C 3.632812 -23.40625 4.613281 -22.847656 5.59375 -21.953125 C 6.570312 -21.066406 7.238281 -20.140625 7.59375 -19.171875 C 10.601562 -21.472656 13.640625 -22.734375 16.703125 -22.953125 C 19.765625 -23.179688 22.40625 -21.34375 24.625 -17.4375 Z M 24.625 -17.4375 "/></g></g><g style="fill:#000000;fill-opacity:1;"><g transform="translate(314.664282, 205.051959)"><path style="stroke:none" d="M 49.921875 -17.03125 C 50.804688 -17.75 51.757812 -17.863281 52.78125 -17.375 C 53.800781 -16.882812 54.578125 -16.148438 55.109375 -15.171875 C 55.640625 -14.191406 55.503906 -13.347656 54.703125 -12.640625 C 51.597656 -9.890625 48.46875 -7.179688 45.3125 -4.515625 C 42.164062 -1.859375 38.820312 0.488281 35.28125 2.53125 C 33.675781 3.507812 31.921875 4.414062 30.015625 5.25 C 28.109375 6.09375 26.175781 6.382812 24.21875 6.125 C 22.1875 5.945312 20.414062 5.144531 18.90625 3.71875 C 17.394531 2.300781 16.328125 0.617188 15.703125 -1.328125 C 15.347656 -2.566406 15.210938 -3.765625 15.296875 -4.921875 C 15.390625 -6.078125 15.613281 -7.1875 15.96875 -8.25 C 12.425781 -5.945312 9.054688 -3.304688 5.859375 -0.328125 C 2.660156 2.640625 -0.976562 4.921875 -5.0625 6.515625 C -5.945312 6.878906 -6.898438 6.726562 -7.921875 6.0625 C -8.941406 5.394531 -9.757812 4.523438 -10.375 3.453125 C -11 2.390625 -11.222656 1.414062 -11.046875 0.53125 C -10.160156 -3.457031 -8.628906 -7.335938 -6.453125 -11.109375 C -4.273438 -14.878906 -1.546875 -18.007812 1.734375 -20.5 C 4.390625 -22.445312 7.203125 -23.222656 10.171875 -22.828125 C 13.148438 -22.429688 15.617188 -20.988281 17.578125 -18.5 C 18.285156 -18.769531 18.992188 -19.035156 19.703125 -19.296875 C 20.585938 -19.472656 21.609375 -19.164062 22.765625 -18.375 C 23.472656 -17.84375 24.132812 -17.195312 24.75 -16.4375 C 25.375 -15.6875 25.734375 -14.957031 25.828125 -14.25 C 25.910156 -13.800781 25.863281 -13.398438 25.6875 -13.046875 C 25.601562 -11.984375 25.378906 -10.960938 25.015625 -9.984375 C 24.660156 -9.003906 24.304688 -7.984375 23.953125 -6.921875 C 23.597656 -5.941406 23.332031 -4.960938 23.15625 -3.984375 C 22.976562 -3.015625 22.757812 -2 22.5 -0.9375 C 22.582031 -0.9375 22.644531 -0.9375 22.6875 -0.9375 C 22.738281 -0.9375 22.804688 -0.9375 22.890625 -0.9375 C 24.847656 -1.195312 27.113281 -1.945312 29.6875 -3.1875 C 32.257812 -4.4375 34.851562 -5.925781 37.46875 -7.65625 C 40.082031 -9.382812 42.5 -11.09375 44.71875 -12.78125 C 46.9375 -14.46875 48.671875 -15.882812 49.921875 -17.03125 Z M 1.859375 -8.125 C 3.640625 -9.539062 5.367188 -10.9375 7.046875 -12.3125 C 8.734375 -13.6875 10.507812 -14.953125 12.375 -16.109375 C 12.289062 -16.109375 12.25 -16.109375 12.25 -16.109375 C 12.070312 -16.109375 11.847656 -16.082031 11.578125 -16.03125 C 11.316406 -15.988281 11.050781 -15.925781 10.78125 -15.84375 C 10.070312 -15.664062 9.382812 -15.351562 8.71875 -14.90625 C 8.050781 -14.46875 7.453125 -14.023438 6.921875 -13.578125 C 5.941406 -12.773438 5.050781 -11.929688 4.25 -11.046875 C 3.457031 -10.160156 2.75 -9.273438 2.125 -8.390625 C 2.039062 -8.296875 2 -8.226562 2 -8.1875 C 2 -8.144531 1.953125 -8.125 1.859375 -8.125 Z M 1.859375 -8.125 "/></g></g><g style="fill:#000000;fill-opacity:1;"><g transform="translate(91.656332, 240.036132)"><path style="stroke:none" d="M 12.015625 -12.375 C 11.179688 -12.882812 10.347656 -13.257812 9.515625 -13.5 C 8.679688 -13.75 7.929688 -13.875 7.265625 -13.875 C 6.460938 -13.875 5.820312 -13.722656 5.34375 -13.421875 C 4.863281 -13.117188 4.625 -12.691406 4.625 -12.140625 C 4.625 -11.640625 4.773438 -11.226562 5.078125 -10.90625 C 5.390625 -10.582031 5.773438 -10.328125 6.234375 -10.140625 C 6.703125 -9.953125 7.351562 -9.726562 8.1875 -9.46875 C 9.289062 -9.125 10.1875 -8.789062 10.875 -8.46875 C 11.5625 -8.15625 12.144531 -7.6875 12.625 -7.0625 C 13.113281 -6.4375 13.359375 -5.613281 13.359375 -4.59375 C 13.359375 -3.632812 13.097656 -2.796875 12.578125 -2.078125 C 12.066406 -1.359375 11.347656 -0.804688 10.421875 -0.421875 C 9.492188 -0.0351562 8.429688 0.15625 7.234375 0.15625 C 5.984375 0.15625 4.773438 -0.0703125 3.609375 -0.53125 C 2.453125 -1 1.453125 -1.632812 0.609375 -2.4375 L 1.78125 -4.796875 C 2.601562 -4.046875 3.503906 -3.457031 4.484375 -3.03125 C 5.472656 -2.601562 6.40625 -2.390625 7.28125 -2.390625 C 8.226562 -2.390625 8.972656 -2.570312 9.515625 -2.9375 C 10.054688 -3.300781 10.328125 -3.800781 10.328125 -4.4375 C 10.328125 -4.945312 10.164062 -5.363281 9.84375 -5.6875 C 9.53125 -6.007812 9.132812 -6.265625 8.65625 -6.453125 C 8.175781 -6.648438 7.523438 -6.875 6.703125 -7.125 C 5.585938 -7.445312 4.691406 -7.757812 4.015625 -8.0625 C 3.347656 -8.375 2.769531 -8.835938 2.28125 -9.453125 C 1.789062 -10.078125 1.546875 -10.894531 1.546875 -11.90625 C 1.546875 -12.8125 1.796875 -13.609375 2.296875 -14.296875 C 2.796875 -14.992188 3.492188 -15.53125 4.390625 -15.90625 C 5.285156 -16.28125 6.3125 -16.46875 7.46875 -16.46875 C 8.488281 -16.46875 9.492188 -16.3125 10.484375 -16 C 11.472656 -15.695312 12.363281 -15.289062 13.15625 -14.78125 Z M 12.015625 -12.375 "/></g></g><g style="fill:#000000;fill-opacity:1;"><g transform="translate(124.648617, 240.036132)"><path style="stroke:none" d="M 0.203125 -13.78125 L 0.203125 -16.25 L 13.21875 -16.25 L 13.21875 -13.78125 L 8.078125 -13.78125 L 8.078125 0 L 5.34375 0 L 5.34375 -13.78125 Z M 0.203125 -13.78125 "/></g></g><g style="fill:#000000;fill-opacity:1;"><g transform="translate(156.643346, 240.036132)"><path style="stroke:none" d="M 4.546875 -6.65625 C 4.546875 -5.300781 4.929688 -4.234375 5.703125 -3.453125 C 6.484375 -2.671875 7.53125 -2.28125 8.84375 -2.28125 C 10.144531 -2.28125 11.171875 -2.664062 11.921875 -3.4375 C 12.679688 -4.207031 13.0625 -5.28125 13.0625 -6.65625 L 13.0625 -16.25 L 15.796875 -16.25 L 15.796875 -6.65625 C 15.796875 -5.25 15.515625 -4.03125 14.953125 -3 C 14.398438 -1.976562 13.597656 -1.1875 12.546875 -0.625 C 11.492188 -0.0703125 10.257812 0.203125 8.84375 0.203125 C 7.40625 0.203125 6.15625 -0.0703125 5.09375 -0.625 C 4.03125 -1.1875 3.21875 -1.976562 2.65625 -3 C 2.09375 -4.03125 1.8125 -5.25 1.8125 -6.65625 L 1.8125 -16.25 L 4.546875 -16.25 Z M 4.546875 -6.65625 "/></g></g><g style="fill:#000000;fill-opacity:1;"><g transform="translate(192.813897, 240.036132)"><path style="stroke:none" d="M 8.796875 -16.25 C 10.398438 -16.25 11.835938 -15.898438 13.109375 -15.203125 C 14.390625 -14.503906 15.390625 -13.535156 16.109375 -12.296875 C 16.828125 -11.054688 17.1875 -9.664062 17.1875 -8.125 C 17.1875 -6.570312 16.820312 -5.179688 16.09375 -3.953125 C 15.375 -2.722656 14.367188 -1.753906 13.078125 -1.046875 C 11.796875 -0.347656 10.34375 0 8.71875 0 L 2.140625 0 L 2.140625 -16.25 Z M 8.859375 -2.453125 C 9.898438 -2.453125 10.84375 -2.691406 11.6875 -3.171875 C 12.539062 -3.648438 13.210938 -4.316406 13.703125 -5.171875 C 14.191406 -6.035156 14.4375 -7.007812 14.4375 -8.09375 C 14.4375 -9.175781 14.179688 -10.148438 13.671875 -11.015625 C 13.171875 -11.890625 12.488281 -12.566406 11.625 -13.046875 C 10.757812 -13.535156 9.800781 -13.78125 8.75 -13.78125 L 4.875 -13.78125 L 4.875 -2.453125 Z M 8.859375 -2.453125 "/></g></g><g style="fill:#000000;fill-opacity:1;"><g transform="translate(229.355623, 240.036132)"><path style="stroke:none" d="M 2.140625 0 L 2.140625 -16.25 L 4.875 -16.25 L 4.875 0 Z M 2.140625 0 "/></g></g><g style="fill:#000000;fill-opacity:1;"><g transform="translate(254.924237, 240.036132)"><path style="stroke:none" d="M 9.390625 -16.421875 C 10.984375 -16.421875 12.4375 -16.054688 13.75 -15.328125 C 15.070312 -14.609375 16.109375 -13.613281 16.859375 -12.34375 C 17.617188 -11.070312 18 -9.671875 18 -8.140625 C 18 -6.597656 17.617188 -5.191406 16.859375 -3.921875 C 16.109375 -2.648438 15.070312 -1.644531 13.75 -0.90625 C 12.4375 -0.164062 10.984375 0.203125 9.390625 0.203125 C 7.796875 0.203125 6.34375 -0.164062 5.03125 -0.90625 C 3.71875 -1.644531 2.679688 -2.648438 1.921875 -3.921875 C 1.160156 -5.191406 0.78125 -6.597656 0.78125 -8.140625 C 0.78125 -9.671875 1.160156 -11.070312 1.921875 -12.34375 C 2.679688 -13.613281 3.71875 -14.609375 5.03125 -15.328125 C 6.34375 -16.054688 7.796875 -16.421875 9.390625 -16.421875 Z M 9.421875 -13.9375 C 8.367188 -13.9375 7.394531 -13.675781 6.5 -13.15625 C 5.601562 -12.644531 4.890625 -11.945312 4.359375 -11.0625 C 3.835938 -10.1875 3.578125 -9.210938 3.578125 -8.140625 C 3.578125 -7.078125 3.84375 -6.097656 4.375 -5.203125 C 4.90625 -4.304688 5.613281 -3.59375 6.5 -3.0625 C 7.394531 -2.539062 8.367188 -2.28125 9.421875 -2.28125 C 10.472656 -2.28125 11.4375 -2.539062 12.3125 -3.0625 C 13.195312 -3.59375 13.898438 -4.304688 14.421875 -5.203125 C 14.941406 -6.097656 15.203125 -7.078125 15.203125 -8.140625 C 15.203125 -9.210938 14.941406 -10.1875 14.421875 -11.0625 C 13.898438 -11.945312 13.195312 -12.644531 12.3125 -13.15625 C 11.4375 -13.675781 10.472656 -13.9375 9.421875 -13.9375 Z M 9.421875 -13.9375 "/></g></g></g></svg>